<?xml version="1.0" encoding="UTF-8"?>
<!DOCTYPE svg PUBLIC "-//W3C//DTD SVG 1.1//EN" "http://www.w3.org/Graphics/SVG/1.1/DTD/svg11.dtd">
<svg xmlns="http://www.w3.org/2000/svg" version="1.1" width="180px" height="180px" style="shape-rendering:geometricPrecision; text-rendering:geometricPrecision; image-rendering:optimizeQuality; fill-rule:evenodd; clip-rule:evenodd" xmlns:xlink="http://www.w3.org/1999/xlink">
<g><path style="opacity:1" fill="#fcfdfd" d="M -0.5,-0.5 C 59.5,-0.5 119.5,-0.5 179.5,-0.5C 179.5,59.5 179.5,119.5 179.5,179.5C 119.5,179.5 59.5,179.5 -0.5,179.5C -0.5,119.5 -0.5,59.5 -0.5,-0.5 Z"/></g>
<g><path style="opacity:1" fill="#cdfafd" d="M 28.5,13.5 C 26.7655,11.7649 24.7655,10.4316 22.5,9.5C 21.8333,9.83333 21.1667,10.1667 20.5,10.5C 21.1272,11.4168 21.4606,12.4168 21.5,13.5C 19.087,12.3202 18.087,10.3202 18.5,7.5C 23.4181,7.11511 26.7515,9.11511 28.5,13.5 Z"/></g>
<g><path style="opacity:1" fill="#3cadd6" d="M 157.5,14.5 C 155.748,17.672 153.748,20.672 151.5,23.5C 152.447,20.3232 153.781,17.3232 155.5,14.5C 155.167,14.1667 154.833,13.8333 154.5,13.5C 153.15,14.9501 151.484,15.6168 149.5,15.5C 150.714,13.8514 152.047,12.1848 153.5,10.5C 155.045,9.54811 156.712,9.21478 158.5,9.5C 158.371,11.2161 158.038,12.8828 157.5,14.5 Z"/></g>
<g><path style="opacity:1" fill="#2ab0e2" d="M 28.5,13.5 C 30.2785,14.6697 31.2785,16.3364 31.5,18.5C 29.8958,19.287 29.2291,20.6203 29.5,22.5C 31.3464,22.2222 32.6798,22.8888 33.5,24.5C 31.9951,25.8415 31.3285,27.5082 31.5,29.5C 26.9514,24.9461 23.618,19.6128 21.5,13.5C 21.4606,12.4168 21.1272,11.4168 20.5,10.5C 21.1667,10.1667 21.8333,9.83333 22.5,9.5C 24.7655,10.4316 26.7655,11.7649 28.5,13.5 Z"/></g>
<g><path style="opacity:1" fill="#e5f8fc" d="M 63.5,31.5 C 63.1667,31.5 62.8333,31.5 62.5,31.5C 61.9836,28.1012 61.1503,24.7679 60,21.5C 59.2917,20.6195 58.4584,19.9528 57.5,19.5C 56.1667,19.5 54.8333,19.5 53.5,19.5C 53.5045,23.5341 53.8379,27.5341 54.5,31.5C 53.3684,32.3543 52.035,32.3543 50.5,31.5C 48.3805,29.6002 46.0472,27.9336 43.5,26.5C 40.5265,24.8532 37.8599,22.8532 35.5,20.5C 37.8553,21.0944 40.022,22.0944 42,23.5C 42.9454,23.0946 43.6121,22.428 44,21.5C 45.7385,29.0337 48.4051,29.367 52,22.5C 52.3989,17.8166 54.8989,16.3166 59.5,18C 60.4162,18.3742 61.2496,18.8742 62,19.5C 62.5013,23.5101 63.0013,27.5101 63.5,31.5 Z"/></g>
<g><path style="opacity:1" fill="#30b6d8" d="M 145.5,19.5 C 145.898,23.7589 143.898,25.5922 139.5,25C 137.843,27.3333 135.843,29.3333 133.5,31C 132.552,31.4828 131.552,31.6495 130.5,31.5C 128.544,33.1484 126.211,33.8151 123.5,33.5C 131.078,29.2622 138.412,24.5956 145.5,19.5 Z"/></g>
<g><path style="opacity:1" fill="#2ab2d8" d="M 57.5,19.5 C 55.215,23.318 54.8817,27.318 56.5,31.5C 55.8333,31.5 55.1667,31.5 54.5,31.5C 53.8379,27.5341 53.5045,23.5341 53.5,19.5C 54.8333,19.5 56.1667,19.5 57.5,19.5 Z"/></g>
<g><path style="opacity:1" fill="#15aded" d="M 31.5,18.5 C 33.0618,18.7329 34.3951,19.3995 35.5,20.5C 37.8599,22.8532 40.5265,24.8532 43.5,26.5C 43.4142,27.4959 43.7476,28.3292 44.5,29C 40.832,29.9476 37.1654,30.781 33.5,31.5C 32.1667,31.5 31.5,30.8333 31.5,29.5C 31.3285,27.5082 31.9951,25.8415 33.5,24.5C 32.6798,22.8888 31.3464,22.2222 29.5,22.5C 29.2291,20.6203 29.8958,19.287 31.5,18.5 Z"/></g>
<g><path style="opacity:1" fill="#dafafd" d="M 157.5,14.5 C 157.66,16.1992 157.494,17.8659 157,19.5C 154,24.5 151,29.5 148,34.5C 145.076,36.0785 142.242,37.7452 139.5,39.5C 143.909,34.431 147.909,29.0977 151.5,23.5C 153.748,20.672 155.748,17.672 157.5,14.5 Z"/></g>
<g><path style="opacity:1" fill="#2bb4e4" d="M 43.5,26.5 C 46.0472,27.9336 48.3805,29.6002 50.5,31.5C 49.5,31.5 48.5,31.5 47.5,31.5C 47.8987,37.6412 46.8987,37.9746 44.5,32.5C 38.2597,31.4669 37.9264,32.8003 43.5,36.5C 44.2978,38.0777 44.7978,39.7444 45,41.5C 46.4609,42.8825 47.2942,42.5492 47.5,40.5C 48.4959,40.4142 49.3292,40.7476 50,41.5C 50.3845,43.1966 50.2178,44.8632 49.5,46.5C 48.8333,46.1667 48.1667,45.8333 47.5,45.5C 41.8607,41.8607 37.194,37.194 33.5,31.5C 37.1654,30.781 40.832,29.9476 44.5,29C 43.7476,28.3292 43.4142,27.4959 43.5,26.5 Z"/></g>
<g><path style="opacity:1" fill="#0aa9f1" d="M 47.5,40.5 C 47.2942,42.5492 46.4609,42.8825 45,41.5C 44.7978,39.7444 44.2978,38.0777 43.5,36.5C 37.9264,32.8003 38.2597,31.4669 44.5,32.5C 46.8987,37.9746 47.8987,37.6412 47.5,31.5C 48.5,31.5 49.5,31.5 50.5,31.5C 52.035,32.3543 53.3684,32.3543 54.5,31.5C 55.1667,31.5 55.8333,31.5 56.5,31.5C 57.1577,30.6016 57.8243,29.6016 58.5,28.5C 59.5,28.8333 60.1667,29.5 60.5,30.5C 58.5983,33.5796 57.9316,36.7463 58.5,40C 57.3816,41.0736 56.3816,42.2402 55.5,43.5C 53.4204,40.7521 51.2537,38.0854 49,35.5C 47.9914,37.0249 47.4914,38.6916 47.5,40.5 Z"/></g>
<g><path style="opacity:1" fill="#17adf0" d="M 151.5,23.5 C 147.909,29.0977 143.909,34.431 139.5,39.5C 136.95,40.0568 134.95,41.3901 133.5,43.5C 132.048,42.6981 130.382,42.1981 128.5,42C 129.833,41.3333 129.833,40.6667 128.5,40C 127.207,39.51 125.873,39.3433 124.5,39.5C 124.5,40.5 124.5,41.5 124.5,42.5C 122.59,40.7162 120.256,39.7162 117.5,39.5C 120.648,36.1139 124.648,34.4473 129.5,34.5C 129.5,35.5 129.5,36.5 129.5,37.5C 130.833,37.5 132.167,37.5 133.5,37.5C 133.317,35.0122 132.317,33.0122 130.5,31.5C 131.552,31.6495 132.552,31.4828 133.5,31C 135.843,29.3333 137.843,27.3333 139.5,25C 143.898,25.5922 145.898,23.7589 145.5,19.5C 146.167,17.5 147.5,16.1667 149.5,15.5C 151.484,15.6168 153.15,14.9501 154.5,13.5C 154.833,13.8333 155.167,14.1667 155.5,14.5C 153.781,17.3232 152.447,20.3232 151.5,23.5 Z"/></g>
<g><path style="opacity:1" fill="#25aed8" d="M 62.5,31.5 C 62.8333,31.5 63.1667,31.5 63.5,31.5C 63.2148,33.288 63.5481,34.9547 64.5,36.5C 67.3992,37.6416 70.3992,38.3083 73.5,38.5C 85.2452,41.3274 96.9118,40.9941 108.5,37.5C 109.5,37.5 110.5,37.5 111.5,37.5C 111.5,38.5 111.5,39.5 111.5,40.5C 108.813,40.3359 106.146,40.5026 103.5,41C 102.584,41.2784 101.918,41.7784 101.5,42.5C 90.7408,42.8599 80.0741,42.1932 69.5,40.5C 67.1073,39.79 64.6073,39.1233 62,38.5C 61.6664,36.1527 61.833,33.8194 62.5,31.5 Z"/></g>
<g><path style="opacity:1" fill="#dafcfe" d="M 108.5,37.5 C 96.9118,40.9941 85.2452,41.3274 73.5,38.5C 85.1897,38.6946 96.8564,38.3612 108.5,37.5 Z"/></g>
<g><path style="opacity:1" fill="#06abf3" d="M 69.5,40.5 C 80.0741,42.1932 90.7408,42.8599 101.5,42.5C 104.833,42.5 108.167,42.5 111.5,42.5C 111.5,43.5 111.5,44.5 111.5,45.5C 118.167,46.1667 118.167,46.8333 111.5,47.5C 110.378,46.8442 109.045,46.5108 107.5,46.5C 98.2248,47.9964 88.8914,48.663 79.5,48.5C 79.5,47.5 79.5,46.5 79.5,45.5C 74.1259,45.523 68.7926,46.023 63.5,47C 61.9808,48.2183 60.8141,49.7183 60,51.5C 59.1301,50.8921 58.6301,50.0588 58.5,49C 59.8524,47.0356 60.6857,44.8689 61,42.5C 63.5645,40.8207 66.3979,40.154 69.5,40.5 Z"/></g>
<g><path style="opacity:1" fill="#1ab1e5" d="M 130.5,31.5 C 132.317,33.0122 133.317,35.0122 133.5,37.5C 132.167,37.5 130.833,37.5 129.5,37.5C 129.5,36.5 129.5,35.5 129.5,34.5C 124.648,34.4473 120.648,36.1139 117.5,39.5C 116.022,39.238 114.689,39.5713 113.5,40.5C 117.014,45.0259 121.681,46.6926 127.5,45.5C 127.5,44.5 127.5,43.5 127.5,42.5C 126.5,42.5 125.5,42.5 124.5,42.5C 124.5,41.5 124.5,40.5 124.5,39.5C 125.873,39.3433 127.207,39.51 128.5,40C 129.833,40.6667 129.833,41.3333 128.5,42C 130.382,42.1981 132.048,42.6981 133.5,43.5C 128.116,47.0696 122.449,50.0696 116.5,52.5C 116.631,51.7611 116.464,51.0944 116,50.5C 114.348,49.6006 112.848,48.6006 111.5,47.5C 118.167,46.8333 118.167,46.1667 111.5,45.5C 111.5,44.5 111.5,43.5 111.5,42.5C 108.167,42.5 104.833,42.5 101.5,42.5C 101.918,41.7784 102.584,41.2784 103.5,41C 106.146,40.5026 108.813,40.3359 111.5,40.5C 111.5,39.5 111.5,38.5 111.5,37.5C 115.417,36.0449 119.417,34.7115 123.5,33.5C 126.211,33.8151 128.544,33.1484 130.5,31.5 Z"/></g>
<g><path style="opacity:1" fill="#09a8f9" d="M 117.5,39.5 C 120.256,39.7162 122.59,40.7162 124.5,42.5C 125.5,42.5 126.5,42.5 127.5,42.5C 127.5,43.5 127.5,44.5 127.5,45.5C 121.681,46.6926 117.014,45.0259 113.5,40.5C 114.689,39.5713 116.022,39.238 117.5,39.5 Z"/></g>
<g><path style="opacity:1" fill="#0aa9f7" d="M 111.5,47.5 C 112.848,48.6006 114.348,49.6006 116,50.5C 116.464,51.0944 116.631,51.7611 116.5,52.5C 115.609,53.1098 114.609,53.4431 113.5,53.5C 112.833,53.5 112.167,53.5 111.5,53.5C 110.378,52.8442 109.045,52.5108 107.5,52.5C 97.9079,54.013 88.2413,55.013 78.5,55.5C 76.0542,54.0172 76.3876,52.8505 79.5,52C 86.0975,51.8628 92.5975,51.0295 99,49.5C 102.862,50.5486 106.695,50.5486 110.5,49.5C 104.041,48.0298 104.374,47.3631 111.5,47.5 Z"/></g>
<g><path style="opacity:1" fill="#e2fbfd" d="M 47.5,45.5 C 48.1667,45.8333 48.8333,46.1667 49.5,46.5C 51.7712,47.6842 54.1046,48.6842 56.5,49.5C 57.0738,54.1831 57.7404,58.8498 58.5,63.5C 59.4322,70.6432 60.4322,77.6432 61.5,84.5C 61.2938,87.4951 61.9605,90.1617 63.5,92.5C 63.427,94.0269 64.0937,95.0269 65.5,95.5C 66.9678,99.2296 69.6345,101.563 73.5,102.5C 71.0733,102.477 68.74,101.977 66.5,101C 64.4061,98.109 62.2395,95.2757 60,92.5C 59.1935,79.408 57.6935,66.408 55.5,53.5C 54.5,53.5 53.5,53.5 52.5,53.5C 52.4348,55.6957 51.7681,57.6957 50.5,59.5C 49.9193,54.6593 48.9193,49.9926 47.5,45.5 Z"/></g>
<g><path style="opacity:1" fill="#13b0e9" d="M 57.5,19.5 C 58.4584,19.9528 59.2917,20.6195 60,21.5C 61.1503,24.7679 61.9836,28.1012 62.5,31.5C 61.833,33.8194 61.6664,36.1527 62,38.5C 64.6073,39.1233 67.1073,39.79 69.5,40.5C 66.3979,40.154 63.5645,40.8207 61,42.5C 60.6857,44.8689 59.8524,47.0356 58.5,49C 58.6301,50.0588 59.1301,50.8921 60,51.5C 60.8141,49.7183 61.9808,48.2183 63.5,47C 68.7926,46.023 74.1259,45.523 79.5,45.5C 79.5,46.5 79.5,47.5 79.5,48.5C 88.8914,48.663 98.2248,47.9964 107.5,46.5C 109.045,46.5108 110.378,46.8442 111.5,47.5C 104.374,47.3631 104.041,48.0298 110.5,49.5C 106.695,50.5486 102.862,50.5486 99,49.5C 92.5975,51.0295 86.0975,51.8628 79.5,52C 76.3876,52.8505 76.0542,54.0172 78.5,55.5C 88.2413,55.013 97.9079,54.013 107.5,52.5C 109.045,52.5108 110.378,52.8442 111.5,53.5C 105.818,54.3245 100.484,55.6579 95.5,57.5C 86.7181,57.9158 78.0514,57.2491 69.5,55.5C 67.7868,56.6354 67.1201,58.302 67.5,60.5C 66.1667,60.5 64.8333,60.5 63.5,60.5C 63.7148,62.1788 63.0481,63.1788 61.5,63.5C 60.5,63.5 59.5,63.5 58.5,63.5C 57.7404,58.8498 57.0738,54.1831 56.5,49.5C 54.1046,48.6842 51.7712,47.6842 49.5,46.5C 50.2178,44.8632 50.3845,43.1966 50,41.5C 49.3292,40.7476 48.4959,40.4142 47.5,40.5C 47.4914,38.6916 47.9914,37.0249 49,35.5C 51.2537,38.0854 53.4204,40.7521 55.5,43.5C 56.3816,42.2402 57.3816,41.0736 58.5,40C 57.9316,36.7463 58.5983,33.5796 60.5,30.5C 60.1667,29.5 59.5,28.8333 58.5,28.5C 57.8243,29.6016 57.1577,30.6016 56.5,31.5C 54.8817,27.318 55.215,23.318 57.5,19.5 Z"/></g>
<g><path style="opacity:1" fill="#07aaf4" d="M 67.5,47.5 C 70.2469,47.1866 72.9135,47.52 75.5,48.5C 75.2907,49.086 74.9574,49.586 74.5,50C 72.5273,50.4955 70.5273,50.6621 68.5,50.5C 68.8174,54.1716 67.1507,55.8383 63.5,55.5C 63.5,53.5 63.5,51.5 63.5,49.5C 65.4832,49.8432 66.8166,49.1765 67.5,47.5 Z"/></g>
<g><path style="opacity:1" fill="#36c0d3" d="M 111.5,53.5 C 112.167,53.5 112.833,53.5 113.5,53.5C 112.486,54.6737 111.153,55.3404 109.5,55.5C 104.985,56.9816 100.319,57.6483 95.5,57.5C 100.484,55.6579 105.818,54.3245 111.5,53.5 Z"/></g>
<g><path style="opacity:1" fill="#d8f8fd" d="M 69.5,55.5 C 78.0514,57.2491 86.7181,57.9158 95.5,57.5C 100.319,57.6483 104.985,56.9816 109.5,55.5C 108.909,56.1515 108.243,56.8182 107.5,57.5C 97.5369,57.9119 87.7036,58.9119 78,60.5C 76.2589,58.5457 74.0922,57.5457 71.5,57.5C 71.5,58.5 71.5,59.5 71.5,60.5C 71.1667,60.5 70.8333,60.5 70.5,60.5C 70.3713,58.7839 70.038,57.1172 69.5,55.5 Z"/></g>
<g><path style="opacity:1" fill="#35b5d3" d="M 123.5,71.5 C 123.167,71.5 122.833,71.5 122.5,71.5C 122.806,68.6146 122.473,65.9479 121.5,63.5C 120.5,63.5 119.5,63.5 118.5,63.5C 117.5,63.5 116.5,63.5 115.5,63.5C 117.617,61.3455 120.284,60.3455 123.5,60.5C 123.5,64.1667 123.5,67.8333 123.5,71.5 Z"/></g>
<g><path style="opacity:1" fill="#2db2d6" d="M 58.5,63.5 C 59.5,63.5 60.5,63.5 61.5,63.5C 61.5,70.5 61.5,77.5 61.5,84.5C 60.4322,77.6432 59.4322,70.6432 58.5,63.5 Z"/></g>
<g><path style="opacity:1" fill="#09abf3" d="M 69.5,55.5 C 70.038,57.1172 70.3713,58.7839 70.5,60.5C 70.2767,62.3417 69.9434,64.175 69.5,66C 72.9657,73.6978 74.9657,81.8644 75.5,90.5C 84.1667,90.5 92.8333,90.5 101.5,90.5C 101.5,92.1667 101.5,93.8333 101.5,95.5C 94.2629,94.0128 86.9296,93.3461 79.5,93.5C 79.5,94.5 79.5,95.5 79.5,96.5C 90.1667,96.5 100.833,96.5 111.5,96.5C 111.813,93.7531 111.48,91.0865 110.5,88.5C 109.526,90.7427 109.192,93.076 109.5,95.5C 107.833,95.5 106.167,95.5 104.5,95.5C 104.599,92.7628 104.265,90.0961 103.5,87.5C 105.229,86.8825 106.729,85.8825 108,84.5C 108.919,80.7589 109.919,77.0923 111,73.5C 111.498,76.8168 111.665,80.1501 111.5,83.5C 112.5,83.5 113.5,83.5 114.5,83.5C 113.526,77.5283 113.359,71.5283 114,65.5C 116.294,69.8134 117.127,74.4801 116.5,79.5C 117.5,79.5 118.5,79.5 119.5,79.5C 119.665,82.5184 119.498,85.5184 119,88.5C 117.732,88.6158 116.398,88.9491 115,89.5C 115.086,93.0473 113.92,96.0473 111.5,98.5C 98.3916,99.5282 85.3916,99.5282 72.5,98.5C 69.954,97.9433 67.6207,96.9433 65.5,95.5C 64.0937,95.0269 63.427,94.0269 63.5,92.5C 64.5279,92.0742 65.8612,92.0742 67.5,92.5C 68.4245,88.2098 69.0912,83.8765 69.5,79.5C 68.5,79.5 67.5,79.5 66.5,79.5C 67.1166,83.9893 65.4499,85.656 61.5,84.5C 61.5,77.5 61.5,70.5 61.5,63.5C 63.0481,63.1788 63.7148,62.1788 63.5,60.5C 64.8333,60.5 66.1667,60.5 67.5,60.5C 67.1201,58.302 67.7868,56.6354 69.5,55.5 Z"/></g>
<g><path style="opacity:1" fill="#cafbfe" d="M 110.5,67.5 C 108.088,73.0735 106.088,78.7402 104.5,84.5C 104.352,79.4398 105.352,74.6064 107.5,70C 108.13,68.6898 109.13,67.8565 110.5,67.5 Z"/></g>
<g><path style="opacity:1" fill="#dafbfd" d="M 122.5,71.5 C 122.833,71.5 123.167,71.5 123.5,71.5C 123.666,76.8437 123.499,82.1771 123,87.5C 122.066,88.8584 121.232,90.1917 120.5,91.5C 121.495,84.8701 122.162,78.2035 122.5,71.5 Z"/></g>
<g><path style="opacity:1" fill="#e8fcfd" d="M 72.5,66.5 C 73.5,66.5 74.5,66.5 75.5,66.5C 76.743,69.2719 78.0764,72.7719 79.5,77C 78.4854,80.1443 78.4854,83.3109 79.5,86.5C 87.9879,86.9941 96.3213,86.3274 104.5,84.5C 103.89,85.391 103.557,86.391 103.5,87.5C 95.5485,88.6032 87.5485,88.7698 79.5,88C 76.6053,81.0403 74.272,73.8736 72.5,66.5 Z"/></g>
<g><path style="opacity:1" fill="#13afe8" d="M 63.5,92.5 C 61.9605,90.1617 61.2938,87.4951 61.5,84.5C 65.4499,85.656 67.1166,83.9893 66.5,79.5C 67.5,79.5 68.5,79.5 69.5,79.5C 69.0912,83.8765 68.4245,88.2098 67.5,92.5C 65.8612,92.0742 64.5279,92.0742 63.5,92.5 Z"/></g>
<g><path style="opacity:1" fill="#2eb3e2" d="M 115.5,63.5 C 116.5,63.5 117.5,63.5 118.5,63.5C 119.419,76.751 120.419,76.751 121.5,63.5C 122.473,65.9479 122.806,68.6146 122.5,71.5C 122.162,78.2035 121.495,84.8701 120.5,91.5C 119.662,91.8417 119.328,92.5084 119.5,93.5C 117.5,96.8333 114.833,99.5 111.5,101.5C 98.8704,102.442 86.2037,102.775 73.5,102.5C 69.6345,101.563 66.9678,99.2296 65.5,95.5C 67.6207,96.9433 69.954,97.9433 72.5,98.5C 85.3916,99.5282 98.3916,99.5282 111.5,98.5C 113.92,96.0473 115.086,93.0473 115,89.5C 116.398,88.9491 117.732,88.6158 119,88.5C 119.498,85.5184 119.665,82.5184 119.5,79.5C 118.5,79.5 117.5,79.5 116.5,79.5C 117.127,74.4801 116.294,69.8134 114,65.5C 113.359,71.5283 113.526,77.5283 114.5,83.5C 113.5,83.5 112.5,83.5 111.5,83.5C 111.665,80.1501 111.498,76.8168 111,73.5C 109.919,77.0923 108.919,80.7589 108,84.5C 106.729,85.8825 105.229,86.8825 103.5,87.5C 103.557,86.391 103.89,85.391 104.5,84.5C 106.088,78.7402 108.088,73.0735 110.5,67.5C 111.559,65.4446 113.225,64.1112 115.5,63.5 Z"/></g>
<g><path style="opacity:1" fill="#07a9f8" d="M 118.5,63.5 C 119.5,63.5 120.5,63.5 121.5,63.5C 120.419,76.751 119.419,76.751 118.5,63.5 Z"/></g>
<g><path style="opacity:1" fill="#29b0e1" d="M 70.5,60.5 C 70.8333,60.5 71.1667,60.5 71.5,60.5C 71.5172,62.5648 71.8505,64.5648 72.5,66.5C 74.272,73.8736 76.6053,81.0403 79.5,88C 87.5485,88.7698 95.5485,88.6032 103.5,87.5C 104.265,90.0961 104.599,92.7628 104.5,95.5C 106.167,95.5 107.833,95.5 109.5,95.5C 109.192,93.076 109.526,90.7427 110.5,88.5C 111.48,91.0865 111.813,93.7531 111.5,96.5C 100.833,96.5 90.1667,96.5 79.5,96.5C 79.5,95.5 79.5,94.5 79.5,93.5C 86.9296,93.3461 94.2629,94.0128 101.5,95.5C 101.5,93.8333 101.5,92.1667 101.5,90.5C 92.8333,90.5 84.1667,90.5 75.5,90.5C 74.9657,81.8644 72.9657,73.6978 69.5,66C 69.9434,64.175 70.2767,62.3417 70.5,60.5 Z"/></g>
<g><path style="opacity:1" fill="#cbf5fb" d="M 119.5,93.5 C 119.059,98.3745 116.393,101.041 111.5,101.5C 114.833,99.5 117.5,96.8333 119.5,93.5 Z"/></g>
<g><path style="opacity:1" fill="#d4fafd" d="M 34.5,130.5 C 34.1667,130.5 33.8333,130.5 33.5,130.5C 33.9746,127.918 33.3079,125.918 31.5,124.5C 29.8333,124.5 28.1667,124.5 26.5,124.5C 33.9717,118.591 36.6383,120.591 34.5,130.5 Z"/></g>
<g><path style="opacity:1" fill="#64c5d3" d="M 31.5,124.5 C 33.3079,125.918 33.9746,127.918 33.5,130.5C 31.6921,129.082 31.0254,127.082 31.5,124.5 Z"/></g>
<g><path style="opacity:1" fill="#cbfeff" d="M 88.5,124.5 C 88.5,126.5 88.5,128.5 88.5,130.5C 87.5,130.5 86.5,130.5 85.5,130.5C 83.1667,130.5 80.8333,130.5 78.5,130.5C 78.5,129.5 78.5,128.5 78.5,127.5C 78.8333,127.5 79.1667,127.5 79.5,127.5C 81.6353,129.369 84.3019,130.036 87.5,129.5C 87.2155,127.585 87.5489,125.919 88.5,124.5 Z"/></g>
<g><path style="opacity:1" fill="#46b8df" d="M 154.5,125.5 C 155.5,125.5 156.5,125.5 157.5,125.5C 158.01,128.388 157.344,130.721 155.5,132.5C 143.5,132.5 131.5,132.5 119.5,132.5C 119.5,130.167 119.5,127.833 119.5,125.5C 131.167,125.5 142.833,125.5 154.5,125.5 Z"/></g>
<g><path style="opacity:1" fill="#08abef" d="M 127.5,126.5 C 135.84,126.334 144.173,126.5 152.5,127C 153.337,128.011 153.67,129.178 153.5,130.5C 143.51,131.333 133.51,131.5 123.5,131C 122.663,129.989 122.33,128.822 122.5,127.5C 124.415,127.784 126.081,127.451 127.5,126.5 Z"/></g>
<g><path style="opacity:1" fill="#1dabec" d="M 26.5,124.5 C 28.1667,124.5 29.8333,124.5 31.5,124.5C 31.0254,127.082 31.6921,129.082 33.5,130.5C 33.8333,130.5 34.1667,130.5 34.5,130.5C 43.8333,130.5 53.1667,130.5 62.5,130.5C 62.5,131.5 62.5,132.5 62.5,133.5C 55.8002,133.17 49.1335,133.503 42.5,134.5C 43.6085,136.214 42.9418,136.881 40.5,136.5C 40.5,135.5 40.5,134.5 40.5,133.5C 39.1667,133.5 37.8333,133.5 36.5,133.5C 36.5,134.833 36.5,136.167 36.5,137.5C 35.5,137.5 34.5,137.5 33.5,137.5C 33.5,135.5 33.5,133.5 33.5,131.5C 32.5,131.5 31.5,131.5 30.5,131.5C 32.3747,141.147 32.708,150.813 31.5,160.5C 31.9569,161.298 32.6236,161.631 33.5,161.5C 34.1667,161.5 34.8333,161.5 35.5,161.5C 42.9876,162.6 50.6542,163.433 58.5,164C 57.7476,164.671 57.4142,165.504 57.5,166.5C 47.7892,165.62 38.1225,165.453 28.5,166C 28.4856,158.606 28.319,151.106 28,143.5C 27.8091,141.292 27.3091,139.292 26.5,137.5C 26.631,136.761 26.4643,136.094 26,135.5C 24.3005,136.406 22.4672,136.739 20.5,136.5C 20.5,134.5 20.5,132.5 20.5,130.5C 22.5,130.5 24.5,130.5 26.5,130.5C 26.5,128.5 26.5,126.5 26.5,124.5 Z"/></g>
<g><path style="opacity:1" fill="#30b2e1" d="M 77.5,127.5 C 77.8333,127.5 78.1667,127.5 78.5,127.5C 78.5,128.5 78.5,129.5 78.5,130.5C 80.8333,130.5 83.1667,130.5 85.5,130.5C 85.7545,133.229 86.7545,135.562 88.5,137.5C 86.1667,137.5 83.8333,137.5 81.5,137.5C 79.5853,137.216 77.9187,137.549 76.5,138.5C 75.8333,138.833 75.1667,139.167 74.5,139.5C 74.3433,138.127 74.51,136.793 75,135.5C 77.0408,136.423 79.2075,136.756 81.5,136.5C 81.5,135.167 81.5,133.833 81.5,132.5C 80.1667,132.5 78.8333,132.5 77.5,132.5C 77.5,130.833 77.5,129.167 77.5,127.5 Z"/></g>
<g><path style="opacity:1" fill="#acf0f9" d="M 109.5,131.5 C 111.308,132.918 111.975,134.918 111.5,137.5C 110.167,137.5 108.833,137.5 107.5,137.5C 109.075,135.886 109.741,133.886 109.5,131.5 Z"/></g>
<g><path style="opacity:1" fill="#e3fefd" d="M 154.5,125.5 C 142.833,125.5 131.167,125.5 119.5,125.5C 119.5,127.833 119.5,130.167 119.5,132.5C 131.5,132.5 143.5,132.5 155.5,132.5C 143.659,133.519 131.659,134.019 119.5,134C 118.577,131.959 118.244,129.792 118.5,127.5C 113.407,127.388 113.407,126.555 118.5,125C 130.674,124.174 142.674,124.34 154.5,125.5 Z"/></g>
<g><path style="opacity:1" fill="#1daee9" d="M 88.5,124.5 C 90.8333,124.5 93.1667,124.5 95.5,124.5C 95.5,126.5 95.5,128.5 95.5,130.5C 100.363,130.181 105.03,130.514 109.5,131.5C 109.741,133.886 109.075,135.886 107.5,137.5C 103.5,137.5 99.5,137.5 95.5,137.5C 94.5119,142.64 94.1786,147.974 94.5,153.5C 93.5416,153.047 92.7083,152.381 92,151.5C 91.5831,152.756 90.7498,153.423 89.5,153.5C 89.5,150.167 89.5,146.833 89.5,143.5C 90.5,143.5 91.5,143.5 92.5,143.5C 92.6567,142.127 92.49,140.793 92,139.5C 90.8552,139.381 89.6885,139.048 88.5,138.5C 88.5,138.167 88.5,137.833 88.5,137.5C 86.7545,135.562 85.7545,133.229 85.5,130.5C 86.5,130.5 87.5,130.5 88.5,130.5C 88.5,128.5 88.5,126.5 88.5,124.5 Z"/></g>
<g><path style="opacity:1" fill="#10aaf1" d="M 77.5,127.5 C 77.5,129.167 77.5,130.833 77.5,132.5C 78.8333,132.5 80.1667,132.5 81.5,132.5C 81.5,133.833 81.5,135.167 81.5,136.5C 79.2075,136.756 77.0408,136.423 75,135.5C 74.51,136.793 74.3433,138.127 74.5,139.5C 74.5,140.833 74.5,142.167 74.5,143.5C 73.5,143.5 72.5,143.5 71.5,143.5C 72.1667,138.167 72.8333,132.833 73.5,127.5C 74.8333,127.5 76.1667,127.5 77.5,127.5 Z"/></g>
<g><path style="opacity:1" fill="#6bc3e0" d="M 20.5,130.5 C 20.5,132.5 20.5,134.5 20.5,136.5C 22.4672,136.739 24.3005,136.406 26,135.5C 26.4643,136.094 26.631,136.761 26.5,137.5C 24.5,137.5 22.5,137.5 20.5,137.5C 19.1667,135.167 19.1667,132.833 20.5,130.5 Z"/></g>
<g><path style="opacity:1" fill="#2fb6e4" d="M 62.5,133.5 C 62.8432,135.483 62.1765,136.817 60.5,137.5C 52.5,137.5 44.5,137.5 36.5,137.5C 36.5,136.167 36.5,134.833 36.5,133.5C 37.8333,133.5 39.1667,133.5 40.5,133.5C 40.5,134.5 40.5,135.5 40.5,136.5C 42.9418,136.881 43.6085,136.214 42.5,134.5C 49.1335,133.503 55.8002,133.17 62.5,133.5 Z"/></g>
<g><path style="opacity:1" fill="#2da4d3" d="M 143.5,140.5 C 136.345,141.329 129.011,141.829 121.5,142C 119.441,143.185 119.274,144.352 121,145.5C 124.694,142.819 126.194,143.986 125.5,149C 125.959,151.96 124.959,154.126 122.5,155.5C 123.75,152.994 124.416,150.327 124.5,147.5C 122.5,147.5 120.5,147.5 118.5,147.5C 118.5,145.167 118.5,142.833 118.5,140.5C 126.833,140.5 135.167,140.5 143.5,140.5 Z"/></g>
<g><path style="opacity:1" fill="#d0fefe" d="M 81.5,137.5 C 83.8333,137.5 86.1667,137.5 88.5,137.5C 88.5,137.833 88.5,138.167 88.5,138.5C 88.5,144.5 88.5,150.5 88.5,156.5C 82.1667,156.5 75.8333,156.5 69.5,156.5C 71.7918,155.534 74.2918,154.867 77,154.5C 80.4582,155.286 83.9582,155.62 87.5,155.5C 87.666,150.156 87.4994,144.823 87,139.5C 85.0517,138.891 83.2184,138.224 81.5,137.5 Z"/></g>
<g><path style="opacity:1" fill="#e9fcfe" d="M 33.5,137.5 C 34.5,137.5 35.5,137.5 36.5,137.5C 44.5,137.5 52.5,137.5 60.5,137.5C 54.021,138.491 47.3543,138.824 40.5,138.5C 39.5,138.5 38.5,138.5 37.5,138.5C 37.2714,140.433 36.4381,142.1 35,143.5C 34.5006,148.823 34.334,154.156 34.5,159.5C 34.1667,159.5 33.8333,159.5 33.5,159.5C 33.5,152.167 33.5,144.833 33.5,137.5 Z"/></g>
<g><path style="opacity:1" fill="#0dadee" d="M 143.5,140.5 C 147.5,140.5 151.5,140.5 155.5,140.5C 155.209,141.649 154.376,142.316 153,142.5C 150.522,141.668 148.022,141.501 145.5,142C 144.027,142.71 143.36,143.876 143.5,145.5C 139.302,145.642 135.302,145.142 131.5,144C 129.33,148.304 127.997,152.804 127.5,157.5C 127.5,158.167 127.5,158.833 127.5,159.5C 125.058,159.354 124.391,160.187 125.5,162C 131.681,162.172 137.681,162.672 143.5,163.5C 137.794,163.171 132.128,163.505 126.5,164.5C 132.552,165.206 138.552,165.873 144.5,166.5C 137.345,167.655 130.012,167.822 122.5,167C 121.549,163.943 121.216,160.777 121.5,157.5C 121.328,156.508 121.662,155.842 122.5,155.5C 124.959,154.126 125.959,151.96 125.5,149C 126.194,143.986 124.694,142.819 121,145.5C 119.274,144.352 119.441,143.185 121.5,142C 129.011,141.829 136.345,141.329 143.5,140.5 Z"/></g>
<g><path style="opacity:1" fill="#36abd1" d="M 26.5,137.5 C 27.3091,139.292 27.8091,141.292 28,143.5C 28.319,151.106 28.4856,158.606 28.5,166C 38.1225,165.453 47.7892,165.62 57.5,166.5C 58.1667,166.5 58.8333,166.5 59.5,166.5C 59.0825,167.222 58.4158,167.722 57.5,168C 47.8333,168.667 38.1667,168.667 28.5,168C 28,167.5 27.5,167 27,166.5C 26.5002,156.839 26.3335,147.172 26.5,137.5 Z"/></g>
<g><path style="opacity:1" fill="#59c1ea" d="M 33.5,137.5 C 33.5,144.833 33.5,152.167 33.5,159.5C 33.5,159.833 33.5,160.167 33.5,160.5C 33.5,160.833 33.5,161.167 33.5,161.5C 32.6236,161.631 31.9569,161.298 31.5,160.5C 32.708,150.813 32.3747,141.147 30.5,131.5C 31.5,131.5 32.5,131.5 33.5,131.5C 33.5,133.5 33.5,135.5 33.5,137.5 Z"/></g>
<g><path style="opacity:1" fill="#fcfdef" d="M 40.5,138.5 C 39.2311,141.756 40.5645,143.256 44.5,143C 42.5798,148.197 41.9132,153.697 42.5,159.5C 44.4147,159.216 46.0813,159.549 47.5,160.5C 44.8333,160.5 42.1667,160.5 39.5,160.5C 40.4524,154.925 40.7857,149.259 40.5,143.5C 39.1667,143.5 37.8333,143.5 36.5,143.5C 37.1128,149.271 36.4461,154.604 34.5,159.5C 34.334,154.156 34.5006,148.823 35,143.5C 36.4381,142.1 37.2714,140.433 37.5,138.5C 38.5,138.5 39.5,138.5 40.5,138.5 Z"/></g>
<g><path style="opacity:1" fill="#fcfafd" d="M 39.5,160.5 C 37.5,160.5 35.5,160.5 33.5,160.5C 33.5,160.167 33.5,159.833 33.5,159.5C 33.8333,159.5 34.1667,159.5 34.5,159.5C 36.4461,154.604 37.1128,149.271 36.5,143.5C 37.8333,143.5 39.1667,143.5 40.5,143.5C 40.7857,149.259 40.4524,154.925 39.5,160.5 Z"/></g>
<g><path style="opacity:1" fill="#46b9dc" d="M 79.5,127.5 C 79.1667,127.5 78.8333,127.5 78.5,127.5C 78.1667,127.5 77.8333,127.5 77.5,127.5C 76.1667,127.5 74.8333,127.5 73.5,127.5C 72.8333,132.833 72.1667,138.167 71.5,143.5C 72.5,143.5 73.5,143.5 74.5,143.5C 74.5,142.167 74.5,140.833 74.5,139.5C 75.1667,139.167 75.8333,138.833 76.5,138.5C 76.8333,144.167 74.1667,146.833 68.5,146.5C 69.9658,139.572 70.9658,132.572 71.5,125.5C 74.6981,124.964 77.3647,125.631 79.5,127.5 Z"/></g>
<g><path style="opacity:1" fill="#7ed8f1" d="M 158.5,140.5 C 158.833,140.5 159.167,140.5 159.5,140.5C 159.5,142.833 159.5,145.167 159.5,147.5C 150.5,147.5 141.5,147.5 132.5,147.5C 136.634,146.515 140.968,146.182 145.5,146.5C 147.167,146.5 148.833,146.5 150.5,146.5C 153.167,146.5 155.833,146.5 158.5,146.5C 158.5,144.5 158.5,142.5 158.5,140.5 Z"/></g>
<g><path style="opacity:1" fill="#1cabdb" d="M 155.5,140.5 C 156.5,140.5 157.5,140.5 158.5,140.5C 158.5,142.5 158.5,144.5 158.5,146.5C 155.833,146.5 153.167,146.5 150.5,146.5C 150.804,145.85 151.137,145.183 151.5,144.5C 149.604,143.534 147.604,143.201 145.5,143.5C 145.5,144.5 145.5,145.5 145.5,146.5C 140.968,146.182 136.634,146.515 132.5,147.5C 132.167,148.833 131.833,150.167 131.5,151.5C 130.167,153.5 128.833,155.5 127.5,157.5C 127.997,152.804 129.33,148.304 131.5,144C 135.302,145.142 139.302,145.642 143.5,145.5C 143.36,143.876 144.027,142.71 145.5,142C 148.022,141.501 150.522,141.668 153,142.5C 154.376,142.316 155.209,141.649 155.5,140.5 Z"/></g>
<g><path style="opacity:1" fill="#12a5f1" d="M 150.5,146.5 C 148.833,146.5 147.167,146.5 145.5,146.5C 145.5,145.5 145.5,144.5 145.5,143.5C 147.604,143.201 149.604,143.534 151.5,144.5C 151.137,145.183 150.804,145.85 150.5,146.5 Z"/></g>
<g><path style="opacity:1" fill="#fdf8f5" d="M 143.5,160.5 C 138.167,160.5 132.833,160.5 127.5,160.5C 127.5,160.167 127.5,159.833 127.5,159.5C 128.5,159.5 129.5,159.5 130.5,159.5C 131.092,156.873 131.425,154.206 131.5,151.5C 135.24,149.327 139.24,148.994 143.5,150.5C 138.357,151.309 135.69,154.309 135.5,159.5C 138.567,158.805 141.567,157.805 144.5,156.5C 145.308,156.808 145.975,157.308 146.5,158C 144.881,158.236 143.881,159.069 143.5,160.5 Z"/></g>
<g><path style="opacity:1" fill="#c9f8fa" d="M 131.5,151.5 C 131.425,154.206 131.092,156.873 130.5,159.5C 129.5,159.5 128.5,159.5 127.5,159.5C 127.5,158.833 127.5,158.167 127.5,157.5C 128.833,155.5 130.167,153.5 131.5,151.5 Z"/></g>
<g><path style="opacity:1" fill="#0cacee" d="M 111.5,157.5 C 111.5,158.833 111.5,160.167 111.5,161.5C 106.167,161.5 100.833,161.5 95.5,161.5C 95.5,160.167 95.5,158.833 95.5,157.5C 100.833,157.5 106.167,157.5 111.5,157.5 Z"/></g>
<g><path style="opacity:1" fill="#e8fdfc" d="M 159.5,140.5 C 159.167,140.5 158.833,140.5 158.5,140.5C 157.5,140.5 156.5,140.5 155.5,140.5C 151.5,140.5 147.5,140.5 143.5,140.5C 135.167,140.5 126.833,140.5 118.5,140.5C 118.5,142.833 118.5,145.167 118.5,147.5C 120.5,147.5 122.5,147.5 124.5,147.5C 124.416,150.327 123.75,152.994 122.5,155.5C 121.662,155.842 121.328,156.508 121.5,157.5C 120.778,157.918 120.278,158.584 120,159.5C 119.502,162.482 119.335,165.482 119.5,168.5C 118.834,165.642 118.167,162.642 117.5,159.5C 116.833,164.833 116.167,170.167 115.5,175.5C 115.063,171.692 113.729,168.359 111.5,165.5C 106.208,164.505 100.875,164.172 95.5,164.5C 101.077,164.144 106.41,163.144 111.5,161.5C 111.5,160.167 111.5,158.833 111.5,157.5C 106.167,156.833 100.833,156.167 95.5,155.5C 101.631,154.908 107.464,155.575 113,157.5C 113.915,156.672 114.581,155.672 115,154.5C 116.154,156.957 117.488,156.957 119,154.5C 119.333,154.833 119.667,155.167 120,155.5C 120.833,153.833 121.667,152.167 122.5,150.5C 120.955,149.548 119.288,149.215 117.5,149.5C 117.099,146.252 116.432,143.085 115.5,140C 116.354,138.978 117.354,138.145 118.5,137.5C 132.493,137.812 146.16,138.812 159.5,140.5 Z"/></g>
<g><path style="opacity:1" fill="#d3fdfe" d="M 149.5,157.5 C 150.404,158.209 150.737,159.209 150.5,160.5C 142.833,161.833 135.167,161.833 127.5,160.5C 132.833,160.5 138.167,160.5 143.5,160.5C 145.5,160.5 147.5,160.5 149.5,160.5C 149.5,159.5 149.5,158.5 149.5,157.5 Z"/></g>
<g><path style="opacity:1" fill="#0faaf0" d="M 94.5,153.5 C 94.1336,155.905 93.4669,158.238 92.5,160.5C 93.8936,162.646 94.5603,164.979 94.5,167.5C 92.4352,167.483 90.4352,167.15 88.5,166.5C 88.5,165.5 88.5,164.5 88.5,163.5C 87.4928,162.172 86.1595,161.172 84.5,160.5C 79.8781,161.385 75.2115,161.718 70.5,161.5C 70.1547,158.512 71.488,157.179 74.5,157.5C 79.548,157.16 84.548,157.827 89.5,159.5C 89.5,157.5 89.5,155.5 89.5,153.5C 90.7498,153.423 91.5831,152.756 92,151.5C 92.7083,152.381 93.5416,153.047 94.5,153.5 Z"/></g>
<g><path style="opacity:1" fill="#36bce8" d="M 95.5,137.5 C 95.5,143.5 95.5,149.5 95.5,155.5C 100.833,156.167 106.167,156.833 111.5,157.5C 106.167,157.5 100.833,157.5 95.5,157.5C 95.5,158.833 95.5,160.167 95.5,161.5C 100.833,161.5 106.167,161.5 111.5,161.5C 106.41,163.144 101.077,164.144 95.5,164.5C 95.5,165.5 95.5,166.5 95.5,167.5C 95.1667,167.5 94.8333,167.5 94.5,167.5C 94.5603,164.979 93.8936,162.646 92.5,160.5C 93.4669,158.238 94.1336,155.905 94.5,153.5C 94.1786,147.974 94.5119,142.64 95.5,137.5 Z"/></g>
<g><path style="opacity:1" fill="#29b8e0" d="M 127.5,159.5 C 127.5,159.833 127.5,160.167 127.5,160.5C 135.167,161.833 142.833,161.833 150.5,160.5C 151.404,161.209 151.737,162.209 151.5,163.5C 148.833,163.5 146.167,163.5 143.5,163.5C 137.681,162.672 131.681,162.172 125.5,162C 124.391,160.187 125.058,159.354 127.5,159.5 Z"/></g>
<g><path style="opacity:1" fill="#3fb4d9" d="M 88.5,138.5 C 89.6885,139.048 90.8552,139.381 92,139.5C 92.49,140.793 92.6567,142.127 92.5,143.5C 91.5,143.5 90.5,143.5 89.5,143.5C 89.5,146.833 89.5,150.167 89.5,153.5C 89.5,155.5 89.5,157.5 89.5,159.5C 84.548,157.827 79.548,157.16 74.5,157.5C 71.488,157.179 70.1547,158.512 70.5,161.5C 75.2115,161.718 79.8781,161.385 84.5,160.5C 86.1595,161.172 87.4928,162.172 88.5,163.5C 87.1667,163.5 85.8333,163.5 84.5,163.5C 79.1667,163.5 73.8333,163.5 68.5,163.5C 68.1984,160.941 68.5318,158.607 69.5,156.5C 75.8333,156.5 82.1667,156.5 88.5,156.5C 88.5,150.5 88.5,144.5 88.5,138.5 Z"/></g>
<g><path style="opacity:1" fill="#20ade7" d="M 158.5,161.5 C 157.661,162.641 156.994,163.974 156.5,165.5C 153.232,166.487 149.898,166.82 146.5,166.5C 149.287,165.523 152.287,165.19 155.5,165.5C 155.587,162.402 155.087,162.068 154,164.5C 153.329,163.748 152.496,163.414 151.5,163.5C 151.737,162.209 151.404,161.209 150.5,160.5C 150.737,159.209 150.404,158.209 149.5,157.5C 149.461,156.417 149.127,155.417 148.5,154.5C 151.086,153.52 153.753,153.187 156.5,153.5C 156.584,156.327 157.25,158.994 158.5,161.5 Z"/></g>
<g><path style="opacity:1" fill="#d7f8fc" d="M 84.5,163.5 C 85.8333,163.5 87.1667,163.5 88.5,163.5C 88.5,164.5 88.5,165.5 88.5,166.5C 88.5,167.5 88.5,168.5 88.5,169.5C 90.8333,169.5 93.1667,169.5 95.5,169.5C 92.6965,170.638 89.6965,170.805 86.5,170C 83.2915,167.553 83.2915,165.887 86.5,165C 85.5842,164.722 84.9175,164.222 84.5,163.5 Z"/></g>
<g><path style="opacity:1" fill="#49b6d8" d="M 121.5,157.5 C 121.216,160.777 121.549,163.943 122.5,167C 130.012,167.822 137.345,167.655 144.5,166.5C 145.167,166.5 145.833,166.5 146.5,166.5C 149.898,166.82 153.232,166.487 156.5,165.5C 156.994,163.974 157.661,162.641 158.5,161.5C 159.145,164.547 158.145,166.713 155.5,168C 143.505,168.5 131.505,168.667 119.5,168.5C 119.335,165.482 119.502,162.482 120,159.5C 120.278,158.584 120.778,157.918 121.5,157.5 Z"/></g>
<g><path style="opacity:1" fill="#05acf7" d="M 146.5,166.5 C 145.833,166.5 145.167,166.5 144.5,166.5C 138.552,165.873 132.552,165.206 126.5,164.5C 132.128,163.505 137.794,163.171 143.5,163.5C 146.167,163.5 148.833,163.5 151.5,163.5C 152.496,163.414 153.329,163.748 154,164.5C 155.087,162.068 155.587,162.402 155.5,165.5C 152.287,165.19 149.287,165.523 146.5,166.5 Z"/></g>
<g><path style="opacity:1" fill="#dafafd" d="M 20.5,137.5 C 22.5,137.5 24.5,137.5 26.5,137.5C 26.3335,147.172 26.5002,156.839 27,166.5C 27.5,167 28,167.5 28.5,168C 38.1667,168.667 47.8333,168.667 57.5,168C 58.4158,167.722 59.0825,167.222 59.5,166.5C 60.4025,163.609 60.7359,160.609 60.5,157.5C 60.5,156.167 60.5,154.833 60.5,153.5C 61.5,153.5 62.5,153.5 63.5,153.5C 62.6895,156.383 62.6895,159.217 63.5,162C 61.7369,163.654 61.4036,165.487 62.5,167.5C 61.9747,168.192 61.3081,168.692 60.5,169C 49.5,169.667 38.5,169.667 27.5,169C 23.2397,166.871 22.4064,163.704 25,159.5C 25.4996,152.508 25.6663,145.508 25.5,138.5C 23.5853,138.784 21.9187,138.451 20.5,137.5 Z"/></g>
<g><path style="opacity:1" fill="#1ea8e2" d="M 54.5,156.5 C 56.6208,156.325 58.6208,156.659 60.5,157.5C 60.7359,160.609 60.4025,163.609 59.5,166.5C 58.8333,166.5 58.1667,166.5 57.5,166.5C 57.4142,165.504 57.7476,164.671 58.5,164C 50.6542,163.433 42.9876,162.6 35.5,161.5C 41.8333,161.5 48.1667,161.5 54.5,161.5C 54.5,159.833 54.5,158.167 54.5,156.5 Z"/></g>
<g><path style="opacity:1" fill="#cbfbfe" d="M 54.5,154.5 C 54.5,155.167 54.5,155.833 54.5,156.5C 54.5,158.167 54.5,159.833 54.5,161.5C 48.1667,161.5 41.8333,161.5 35.5,161.5C 34.8333,161.5 34.1667,161.5 33.5,161.5C 33.5,161.167 33.5,160.833 33.5,160.5C 35.5,160.5 37.5,160.5 39.5,160.5C 42.1667,160.5 44.8333,160.5 47.5,160.5C 49.5,160.5 51.5,160.5 53.5,160.5C 53.2053,158.265 53.5386,156.265 54.5,154.5 Z"/></g>
<g><path style="opacity:1" fill="#2aa7ce" d="M 60.5,153.5 C 60.5,154.833 60.5,156.167 60.5,157.5C 58.6208,156.659 56.6208,156.325 54.5,156.5C 54.5,155.833 54.5,155.167 54.5,154.5C 56.2646,153.539 58.2646,153.205 60.5,153.5 Z"/></g>
<g><path style="opacity:1" fill="#1bb9ca" d="M 88.5,166.5 C 90.4352,167.15 92.4352,167.483 94.5,167.5C 94.8333,167.5 95.1667,167.5 95.5,167.5C 95.5,168.167 95.5,168.833 95.5,169.5C 93.1667,169.5 90.8333,169.5 88.5,169.5C 88.5,168.5 88.5,167.5 88.5,166.5 Z"/></g>
<g><path style="opacity:1" fill="#dffefe" d="M 158.5,161.5 C 159.152,162.449 159.486,163.615 159.5,165C 159.325,166.658 158.658,167.991 157.5,169C 146.966,169.201 136.466,169.701 126,170.5C 124.56,169.852 123.06,169.519 121.5,169.5C 121.799,171.604 121.466,173.604 120.5,175.5C 119.526,173.257 119.192,170.924 119.5,168.5C 131.505,168.667 143.505,168.5 155.5,168C 158.145,166.713 159.145,164.547 158.5,161.5 Z"/></g>
</svg>
